<svg width="32" height="32" viewBox="0 0 32 32" fill="none" xmlns="http://www.w3.org/2000/svg">
<path d="M29.995 32C12.9317 32.0242 -0.0182352 18.919 1.92748e-05 2.00502C1.92748e-05 0.90045 0.89545 0 2.00002 0H7.27873C8.26988 0 9.11186 0.728259 9.2574 1.70866C9.60622 4.05839 10.2903 6.34594 11.289 8.50141L11.4945 8.94501C11.7803 9.56182 11.5866 10.2947 11.0334 10.6897C9.3986 11.8572 8.77384 14.2071 10.0474 16.0407C11.6456 18.3417 13.6601 20.3558 15.9605 21.9532C17.794 23.2264 20.1436 22.6018 21.311 20.9673C21.7063 20.4138 22.4396 20.22 23.0568 20.5059L23.4984 20.7104C25.654 21.709 27.9417 22.3932 30.2917 22.7419C31.2721 22.8874 32 23.7294 32 24.7205V30C32 31.1045 31.1024 32 29.9978 32L29.995 32Z" fill="#2E3A59"/>
</svg>
